<svg xmlns="http://www.w3.org/2000/svg" viewBox="0 0 1440 320">
        <path
          fill="#ffffff"
          fill-opacity="1"
          d="M0,32L40,26.7C80,21,160,11,240,26.7C320,43,400,85,480,90.7C560,96,640,64,720,53.3C800,43,880,53,960,58.7C1040,64,1120,64,1200,80C1280,96,1360,128,1400,144L1440,160L1440,320L1400,320C1360,320,1280,320,1200,320C1120,320,1040,320,960,320C880,320,800,320,720,320C640,320,560,320,480,320C400,320,320,320,240,320C160,320,80,320,40,320L0,320Z"
        ></path>
      </svg>