<svg
        className="wave"
        style={{}}
        xmlns="http://www.w3.org/2000/svg"
        viewBox="0 0 1440 320"
      >
        <path
          fill="#ffffff"





          
          fill-opacity="1"
          d="M0,288L30,256C60,224,120,160,180,160C240,160,300,224,360,240C420,256,480,224,540,229.3C600,235,660,277,720,282.7C780,288,840,256,900,250.7C960,245,1020,267,1080,266.7C1140,267,1200,245,1260,218.7C1320,192,1380,160,1410,144L1440,128L1440,320L1410,320C1380,320,1320,320,1260,320C1200,320,1140,320,1080,320C1020,320,960,320,900,320C840,320,780,320,720,320C660,320,600,320,540,320C480,320,420,320,360,320C300,320,240,320,180,320C120,320,60,320,30,320L0,320Z"
        ></path>
      </svg>